<?xml version="1.0" encoding="utf-8"?>
<!-- Generator: Adobe Illustrator 17.0.2, SVG Export Plug-In . SVG Version: 6.00 Build 0)  -->
<svg version="1.1" id="Layer_1" xmlns="http://www.w3.org/2000/svg" xmlns:xlink="http://www.w3.org/1999/xlink" x="0px" y="0px"
	 width="600px" height="600px" viewBox="0 0 600 600" enable-background="new 0 0 600 600" xml:space="preserve">
<g>
	<circle fill="#FFFFFF" cx="404.517" cy="120.946" r="44.584"/>
	<path fill="#FFFFFF" d="M449.101,272.681l-24.353-0.749c0,0-6.369-0.375-11.614-12.364c0,0-24.353-64.441-47.581-82.05
		c0,0-24.353-23.978-97.785-31.846c0,0-7.868-0.749-16.11,2.997c0,0-63.309,46.827-72.681,58.819
		c-2.128,2.722-2.822,9.131-2.203,12.296c1.796,9.185,14.398,7.806,20.312,4.849c4.564-2.282,8.876-5.544,13.261-8.174
		c13.329-7.994,26.461-16.318,39.907-24.121c3.713-2.155,7.738-5.263,11.895-6.544c0.001,0,8.618-2.656,28.474,3.339
		c0,0,10.49,2.623,13.113,5.994c0,0,2.997,5.994-0.749,10.49l-56.948,87.669c0,0-18.465,24.727,16.485,51.702l66.314,48.331
		c0,0,11.24,7.118,8.992,14.237l-39.713,94.039c0,0-5.995,29.223,5.245,32.595c0,0,12.364,2.248,27.35-16.11l61.069-113.521
		c0,0,14.612-25.102-31.846-50.204s-43.46-34.468-43.46-34.468s-3.372-3.372,4.496-11.24l45.708-64.066l24.353,46.832
		c0,0,3.747,10.865,15.736,8.992c0,0,91.791-4.496,93.664-15.736C500.429,284.67,501.928,276.802,449.101,272.681z"/>
	<path fill="#FFFFFF" d="M196.958,382.081l-42.817,2.889c-62.567,7.976-66.208,19.59-66.208,19.59
		c16.485,21.355,119.515,19.857,119.515,19.857c17.609,1.873,29.972-13.488,29.972-13.488l26.869-35.967l-39.339-29.598
		C208.573,369.736,196.958,382.081,196.958,382.081z"/>
</g>
</svg>
