<?xml version="1.0" encoding="utf-8"?>
<!-- Generator: Adobe Illustrator 17.0.2, SVG Export Plug-In . SVG Version: 6.00 Build 0)  -->
<svg version="1.1" id="Layer_1" xmlns="http://www.w3.org/2000/svg" xmlns:xlink="http://www.w3.org/1999/xlink" x="0px" y="0px"
	 width="600px" height="600px" viewBox="0 0 600 600" enable-background="new 0 0 600 600" xml:space="preserve">
<g>
	<circle fill="#FFFFFF" cx="291.77" cy="156.183" r="35.619"/>
	<path fill="#FFFFFF" d="M395.357,363.758l-53.342-48.524c0,0-2.237-0.688-2.237-9.292v-55.751c0,0,30.973-40.609,41.297-56.439
		c0,0,24.778-33.726,0-64.699c-16.356-20.446-32.827-46.093-54.821-60.883c-1.332-0.895-5.205-3.61-6.857-3.593
		c-4.083,0.042-4.68,2.554-3.49,6.092c2.683,7.977,14.451,21.174,15.865,23.072c11.352,15.24,22.209,31.37,30.719,48.387
		c6.914,13.832-3.332,28.023-12.217,39.233c-11.503,14.513-27.876,23.402-27.876,23.402c-6.837,1.763-18.855,1.835-27.761,1.835
		c-8.394,0-19.307-0.023-25.839-1.577c-14.772-3.514-21.744-9.886-33.565-24.801c-8.885-11.21-14.56-24.26-7.645-38.092
		c8.509-17.018,19.366-33.147,30.719-48.387c1.414-1.898,13.182-15.095,15.865-23.072c1.19-3.539,0.593-6.05-3.49-6.092
		c-1.651-0.017-5.525,2.697-6.857,3.593c-21.994,14.79-38.464,40.437-54.821,60.883c-24.778,30.973,0,64.699,0,64.699
		c10.324,15.831,41.297,56.439,41.297,56.439v55.751c0,0-7.743,183.084,37.684,229.199c0,0,6.539,4.13,7.055-19.272
		c0,0-10.496-153.143,1.549-164.156c0,0,19.616-1.721,55.407,25.466c0,0,7.571,5.506-6.539,13.077c0,0-52.996,25.121-35.447,31.661
		c2.303,0.857,8.172-0.685,10.482-0.964c13.206-1.593,25.59-6.039,37.784-11.16C372.656,403.756,419.126,384.826,395.357,363.758z"
		/>
</g>
</svg>
