<?xml version="1.0" encoding="utf-8"?>
<!-- Generator: Adobe Illustrator 17.0.2, SVG Export Plug-In . SVG Version: 6.00 Build 0)  -->
<svg version="1.1" id="Layer_1" xmlns="http://www.w3.org/2000/svg" xmlns:xlink="http://www.w3.org/1999/xlink" x="0px" y="0px"
	 width="600px" height="600px" viewBox="0 0 600 600" enable-background="new 0 0 600 600" xml:space="preserve">
<g>
	<path fill="#FFFFFF" d="M289.753,186.286L277.921,73.884h-16.057v116.627c-9.719,16.057-23.663,0.845-23.663,0.845l-6.338-117.472
		h-19.015l-5.071,116.627c-12.677,15.635-22.818,0-22.818,0V73.884H167.21l-11.832,112.402
		c8.029,54.511,38.876,76.906,38.876,76.906l-9.296,235.79c8.874,32.466,37.185,32.115,37.185,32.115
		c30.424,0,35.495-29.579,35.495-29.579l-3.38-239.17C293.978,212.062,289.753,186.286,289.753,186.286z"/>
	<path fill="#FFFFFF" d="M436.804,194.314c-0.219-22.754-7.792-46.762-21.128-65.92c0,0-45.637-73.526-66.342-48.595v425.943
		c0,0,10.987,25.705,35.495,25.44c0,0,20.283,0.265,31.27-24.173c0,0-4.226-88.809-15.635-201.386
		C400.464,305.624,436.804,247.135,436.804,194.314z"/>
</g>
</svg>
