<?xml version="1.0" encoding="utf-8"?>
<!-- Generator: Adobe Illustrator 17.0.2, SVG Export Plug-In . SVG Version: 6.00 Build 0)  -->
<svg version="1.1" id="Layer_1" xmlns="http://www.w3.org/2000/svg" xmlns:xlink="http://www.w3.org/1999/xlink" x="0px" y="0px"
	 width="600px" height="600px" viewBox="0 0 600 600" enable-background="new 0 0 600 600" xml:space="preserve">
<g>
	<path fill="#FFFFFF" d="M480.572,258.393V102.546c0-9.322-7.557-16.879-16.879-16.879H164.378c-9.322,0-16.879,7.557-16.879,16.879
		v35.304h-39.384c-8.079,0-14.628,7.368-14.628,16.457s6.549,16.457,14.628,16.457h39.384v57.106h-39.384
		c-8.079,0-14.628,7.368-14.628,16.457s6.549,16.457,14.628,16.457h39.384v59.356h-39.384c-8.079,0-14.628,7.368-14.628,16.457
		s6.549,16.457,14.628,16.457h39.384v57.106h-39.384c-8.079,0-14.628,7.368-14.628,16.457c0,9.089,6.549,16.457,14.628,16.457
		h39.384v37.555c0,9.322,7.557,16.879,16.879,16.879h139.53l9.565-29.257 M179.006,450.247c-12.429,0-22.505-10.076-22.505-22.505
		c0-12.429,10.076-22.505,22.505-22.505s22.505,10.076,22.505,22.505C201.511,440.171,191.435,450.247,179.006,450.247z
		 M179.006,362.478c-12.429,0-22.505-10.076-22.505-22.505s10.076-22.505,22.505-22.505s22.505,10.076,22.505,22.505
		S191.435,362.478,179.006,362.478z M179.006,267.958c-12.429,0-22.505-10.076-22.505-22.505c0-12.429,10.076-22.505,22.505-22.505
		s22.505,10.076,22.505,22.505C201.511,257.881,191.435,267.958,179.006,267.958z M179.006,177.938
		c-12.429,0-22.505-10.076-22.505-22.505s10.076-22.505,22.505-22.505s22.505,10.076,22.505,22.505S191.435,177.938,179.006,177.938
		z"/>
	<polygon fill="#FFFFFF" points="309.535,525.92 350.888,506.509 322.194,477.816 	"/>
	<polygon fill="#FFFFFF" points="327.257,467.688 359.327,498.07 500.264,321.688 468.194,292.15 	"/>
	<polygon fill="#FFFFFF" points="493.512,258.393 472.414,286.243 505.327,314.092 527.27,287.931 	"/>
	<path fill="#FFFFFF" d="M451.316,496.382c11.186,0,20.254-9.068,20.254-20.254V372.341l-96.283,124.041H451.316z"/>
</g>
</svg>