<?xml version="1.0" encoding="utf-8"?>
<!-- Generator: Adobe Illustrator 17.0.2, SVG Export Plug-In . SVG Version: 6.00 Build 0)  -->
<svg version="1.1" id="Layer_1" xmlns="http://www.w3.org/2000/svg" xmlns:xlink="http://www.w3.org/1999/xlink" x="0px" y="0px"
	 width="600px" height="600px" viewBox="0 0 600 600" enable-background="new 0 0 600 600" xml:space="preserve">
<g>
	<path fill="#FFFFFF" d="M341.837,212.877c0,0,21.798-96.589-61.637-125.529c0,0-52.617-15.033-76.67-12.778
		c0,0-21.047,10.899,0,23.302c0,0,112.374-2.631,114.254,72.16c0,0,3.007,19.543-11.651,26.684l-35.328,21.798
		c0,0-37.583,18.04-38.711,53.368c0,0-12.778,57.878,55.999,92.079c0,0,3.383,44.348-53.368,131.918c0,0-8.644,21.047,12.027,35.328
		c0,0,24.805,7.141,31.57-16.161c0,0,59.758-140.938,59.758-150.334c0,0,8.268-4.134,10.523,5.638c0,0,4.51,26.684,6.389,134.173
		c0,0-0.752,27.716,21.423,27.716c0,0,15.785,2.351,20.295-26.964v-130.79C396.709,374.486,390.783,266.481,341.837,212.877z
		 M295.322,331.876c0,0-61.637-19.543-27.812-69.153C267.51,262.722,297.577,301.809,295.322,331.876z"/>
	<circle fill="#FFFFFF" cx="258.333" cy="162.97" r="41.749"/>
</g>
</svg>
