<?xml version="1.0" encoding="utf-8"?>
<!-- Generator: Adobe Illustrator 17.0.2, SVG Export Plug-In . SVG Version: 6.00 Build 0)  -->
<svg version="1.1" id="Layer_1" xmlns="http://www.w3.org/2000/svg" xmlns:xlink="http://www.w3.org/1999/xlink" x="0px" y="0px"
	 width="600px" height="600px" viewBox="0 0 600 600" enable-background="new 0 0 600 600" xml:space="preserve">
<g>
	<path fill="#FFFFFF" d="M324.961,282.728c0,0-39.876-1.078-140.104-88.373c0,0-74.363,71.129,39.876,126.093
		c0,0,85.14,43.109,208-5.388c0,0-29.098-11.855-48.497-65.741c-6.532-18.144-20.244-36.287-31.33-51.728
		c-19.029-26.502-48.243-56.288-80.465-65.668c-9.388-2.733-18.999-2.797-28.46-0.351c-10.266,2.654-22.84,5.567-30.174,13.73
		c-5.208,5.796-17.175,24.557-8.472,31.81c-0.005-0.004-32.332-26.946-32.332-66.819c0,0-2.155-33.409-24.787-6.466
		C148.216,103.826,149.293,183.578,324.961,282.728z"/>
	<path fill="#FFFFFF" d="M511.407,312.904c0,0,1.078-43.109-111.005-66.819l19.399,36.643c0,0,49.109,21.638,64.663,39.876
		c0,0-54.964,43.109-175.668,43.109c0,0-134.715,0-185.368-46.342c0,0,10.835-18.101,36.643-30.176c0,0-9.384-10.569-16.435-31.254
		c0,0-48.228,29.098-52.539,48.497c0,0-10.777,79.751,68.974,160.58c0,0,34.487,48.497,141.181,48.497
		c0,0,87.295,4.311,136.87-44.186C438.122,471.329,522.184,399.121,511.407,312.904z"/>
</g>
</svg>
