<?xml version="1.0" encoding="utf-8"?>
<!-- Generator: Adobe Illustrator 17.0.2, SVG Export Plug-In . SVG Version: 6.00 Build 0)  -->
<svg version="1.1" id="Layer_1" xmlns="http://www.w3.org/2000/svg" xmlns:xlink="http://www.w3.org/1999/xlink" x="0px" y="0px"
	 width="600px" height="600px" viewBox="0 0 600 600" enable-background="new 0 0 600 600" xml:space="preserve">
<path fill="#FFFFFF" d="M442.304,366.385C434.284,266.708,301.382,84.54,301.381,84.54c-4.857-1.164-35.361,48.806-39.095,54.248
	c-13.137,19.145-25.826,38.526-37.424,58.649c-23.072,40.032-42.881,81.172-58.098,124.857c-10.502,30.15-9.008,61.703,0.883,91.754
	c6.524,19.822,18.075,37.575,32.853,52.238c47.075,46.711,123.23,59.049,179.626,24.187c35.906-22.195,52.424-58,60.211-98.119
	C442.07,383.426,442.83,375.349,442.304,366.385z M258.99,466.062c0,0-146.651-63.014,27.497-304.76
	C286.487,161.302,200.559,362.948,258.99,466.062z"/>
</svg>
